<svg width="102" height="16" viewBox="0 0 102 16" fill="none" xmlns="http://www.w3.org/2000/svg">
<path d="M15.0284 7.72727C15.0284 9.34659 14.7135 10.7126 14.0838 11.8253C13.4541 12.9332 12.6042 13.7737 11.5341 14.3466C10.464 14.9148 9.27083 15.1989 7.95455 15.1989C6.62879 15.1989 5.43087 14.9124 4.3608 14.3395C3.29545 13.7618 2.44792 12.919 1.81818 11.8111C1.19318 10.6984 0.880682 9.33712 0.880682 7.72727C0.880682 6.10795 1.19318 4.74432 1.81818 3.63636C2.44792 2.52367 3.29545 1.68324 4.3608 1.11506C5.43087 0.54214 6.62879 0.255681 7.95455 0.255681C9.27083 0.255681 10.464 0.54214 11.5341 1.11506C12.6042 1.68324 13.4541 2.52367 14.0838 3.63636C14.7135 4.74432 15.0284 6.10795 15.0284 7.72727ZM10.9659 7.72727C10.9659 6.85606 10.8499 6.12216 10.6179 5.52557C10.3906 4.92424 10.0521 4.4697 9.60227 4.16193C9.1572 3.84943 8.60795 3.69318 7.95455 3.69318C7.30114 3.69318 6.74953 3.84943 6.29972 4.16193C5.85464 4.4697 5.5161 4.92424 5.28409 5.52557C5.05682 6.12216 4.94318 6.85606 4.94318 7.72727C4.94318 8.59848 5.05682 9.33475 5.28409 9.93608C5.5161 10.5327 5.85464 10.9872 6.29972 11.2997C6.74953 11.6075 7.30114 11.7614 7.95455 11.7614C8.60795 11.7614 9.1572 11.6075 9.60227 11.2997C10.0521 10.9872 10.3906 10.5327 10.6179 9.93608C10.8499 9.33475 10.9659 8.59848 10.9659 7.72727ZM23.418 4.09091V6.93182H16.2305V4.09091H23.418ZM17.6225 1.47727H21.543V11.4915C21.543 11.643 21.569 11.7708 21.6211 11.875C21.6732 11.9744 21.7537 12.0502 21.8626 12.1023C21.9715 12.1496 22.1112 12.1733 22.2816 12.1733C22.4 12.1733 22.5373 12.1591 22.6935 12.1307C22.8545 12.1023 22.9729 12.0786 23.0487 12.0597L23.6168 14.8153C23.4416 14.8674 23.1907 14.9313 22.864 15.0071C22.542 15.0829 22.1585 15.1326 21.7134 15.1562C20.8138 15.2036 20.0586 15.1113 19.4478 14.8793C18.837 14.6425 18.3777 14.2708 18.07 13.7642C17.7622 13.2576 17.613 12.6231 17.6225 11.8608V1.47727ZM28.0575 15.1705C27.3615 15.1705 26.746 15.0568 26.2109 14.8295C25.6806 14.5975 25.264 14.2472 24.9609 13.7784C24.6579 13.3097 24.5064 12.7131 24.5064 11.9886C24.5064 11.392 24.6082 10.883 24.8118 10.4616C25.0154 10.0355 25.2995 9.6875 25.6641 9.41761C26.0286 9.14773 26.4524 8.94176 26.9354 8.79972C27.4231 8.65767 27.9486 8.56534 28.5121 8.52273C29.1229 8.47538 29.6129 8.41856 29.9822 8.35227C30.3563 8.28125 30.6262 8.18419 30.7919 8.06108C30.9576 7.93324 31.0405 7.76515 31.0405 7.55682V7.52841C31.0405 7.24432 30.9316 7.02652 30.7138 6.875C30.496 6.72348 30.2166 6.64773 29.8757 6.64773C29.5017 6.64773 29.1963 6.73059 28.9595 6.89631C28.7275 7.05729 28.5878 7.30587 28.5405 7.64205H24.9325C24.9799 6.97917 25.1906 6.36837 25.5646 5.80966C25.9434 5.24621 26.495 4.7964 27.2195 4.46023C27.9439 4.11932 28.8482 3.94886 29.9325 3.94886C30.7138 3.94886 31.4145 4.04119 32.0348 4.22585C32.6551 4.40578 33.183 4.65909 33.6186 4.9858C34.0542 5.30777 34.3857 5.68655 34.6129 6.12216C34.8449 6.55303 34.9609 7.02178 34.9609 7.52841V15H31.2962V13.4659H31.2109C30.9931 13.8731 30.728 14.2022 30.4155 14.4531C30.1077 14.7041 29.755 14.8864 29.3572 15C28.9643 15.1136 28.531 15.1705 28.0575 15.1705ZM29.3359 12.6989C29.6342 12.6989 29.9136 12.6373 30.174 12.5142C30.4392 12.3911 30.6546 12.2135 30.8203 11.9815C30.986 11.7495 31.0689 11.4678 31.0689 11.1364V10.2273C30.9647 10.2699 30.8535 10.3101 30.7351 10.348C30.6214 10.3859 30.4983 10.4214 30.3658 10.4545C30.2379 10.4877 30.1006 10.5185 29.9538 10.5469C29.8118 10.5753 29.6626 10.6013 29.5064 10.625C29.2034 10.6723 28.9548 10.7505 28.7607 10.8594C28.5713 10.9635 28.4292 11.0938 28.3345 11.25C28.2446 11.4015 28.1996 11.572 28.1996 11.7614C28.1996 12.0644 28.3061 12.2964 28.5192 12.4574C28.7322 12.6184 29.0045 12.6989 29.3359 12.6989ZM40.3569 12.4148L40.3853 7.75568H40.8967L43.5387 4.09091H47.9421L43.5103 9.80114H42.4023L40.3569 12.4148ZM36.8342 15V0.454545H40.7546V15H36.8342ZM43.5671 15L41.0671 10.6818L43.6239 7.89773L48.0558 15H43.5671ZM56.0369 10.2273V4.09091H59.9574V15H56.2358V12.9261H56.1222C55.8854 13.6222 55.4711 14.1667 54.8793 14.5597C54.2874 14.9479 53.5843 15.142 52.7699 15.142C52.0076 15.142 51.34 14.9669 50.767 14.6165C50.1989 14.2661 49.7562 13.7831 49.4389 13.1676C49.1264 12.5521 48.9678 11.8466 48.9631 11.0511V4.09091H52.8835V10.2273C52.8883 10.767 53.0256 11.1908 53.2955 11.4986C53.5701 11.8063 53.9536 11.9602 54.446 11.9602C54.7727 11.9602 55.0545 11.8916 55.2912 11.7543C55.5327 11.6122 55.7173 11.4134 55.8452 11.1577C55.9777 10.8973 56.0417 10.5871 56.0369 10.2273Z" fill="black"/>
<path d="M61.8945 15V0.454545H65.8434V6.13636H71.0707V0.454545H75.0195V15H71.0707V9.31818H65.8434V15H61.8945ZM84.0252 10.2273V4.09091H87.9457V15H84.2241V12.9261H84.1104C83.8737 13.6222 83.4594 14.1667 82.8675 14.5597C82.2757 14.9479 81.5726 15.142 80.7582 15.142C79.9959 15.142 79.3282 14.9669 78.7553 14.6165C78.1871 14.2661 77.7444 13.7831 77.4272 13.1676C77.1147 12.5521 76.9561 11.8466 76.9513 11.0511V4.09091H80.8718V10.2273C80.8765 10.767 81.0138 11.1908 81.2837 11.4986C81.5584 11.8063 81.9419 11.9602 82.4343 11.9602C82.761 11.9602 83.0427 11.8916 83.2795 11.7543C83.521 11.6122 83.7056 11.4134 83.8335 11.1577C83.966 10.8973 84.0299 10.5871 84.0252 10.2273ZM89.8828 15V0.454545H93.8033V5.99432H93.8601C94.0021 5.625 94.2105 5.28646 94.4851 4.97869C94.7597 4.66619 95.1006 4.41761 95.5078 4.23295C95.915 4.04356 96.3885 3.94886 96.9283 3.94886C97.648 3.94886 98.3321 4.14062 98.9808 4.52415C99.6342 4.90767 100.165 5.51136 100.572 6.33523C100.984 7.15909 101.19 8.22917 101.19 9.54545C101.19 10.8049 100.993 11.849 100.6 12.6776C100.212 13.5062 99.6911 14.1241 99.0376 14.5312C98.389 14.9384 97.6764 15.142 96.8999 15.142C96.3885 15.142 95.9316 15.0592 95.5291 14.8935C95.1314 14.723 94.7905 14.4934 94.5064 14.2045C94.227 13.911 94.0116 13.5795 93.8601 13.2102H93.7749V15H89.8828ZM93.718 9.54545C93.718 10.0758 93.7867 10.535 93.924 10.9233C94.0661 11.3068 94.2649 11.6051 94.5206 11.8182C94.781 12.0265 95.0911 12.1307 95.451 12.1307C95.8108 12.1307 96.1162 12.0289 96.3672 11.8253C96.6229 11.617 96.817 11.321 96.9496 10.9375C97.0869 10.5492 97.1555 10.0852 97.1555 9.54545C97.1555 9.00568 97.0869 8.54403 96.9496 8.16051C96.817 7.77225 96.6229 7.47633 96.3672 7.27273C96.1162 7.06439 95.8108 6.96023 95.451 6.96023C95.0911 6.96023 94.781 7.06439 94.5206 7.27273C94.2649 7.47633 94.0661 7.77225 93.924 8.16051C93.7867 8.54403 93.718 9.00568 93.718 9.54545Z" fill="#FFB800"/>
</svg>
